<mxfile host="app.diagrams.net" modified="2024-10-28T02:37:24.547Z" agent="Mozilla/5.0 (Windows NT 10.0; Win64; x64) AppleWebKit/537.36 (KHTML, like Gecko) Chrome/130.0.0.0 Safari/537.36" version="24.5.4" etag="GDzRJqKv_AhbDPIL8qg3" type="github">
  <diagram name="第 1 页" id="mEQD89S4h6d6V_XRiTVG">
    <mxGraphModel>
      <root>
        <mxCell id="0" />
        <mxCell id="1" parent="0" />
      </root>
    </mxGraphModel>
  </diagram>
</mxfile>
